<svg xmlns="http://www.w3.org/2000/svg" xmlns:xlink="http://www.w3.org/1999/xlink" width="500" zoomAndPan="magnify" viewBox="0 0 375 374.999991" height="500" preserveAspectRatio="xMidYMid meet" version="1.0"><defs><g/><clipPath id="87a1152e30"><path d="M 110 80.542969 L 266 80.542969 L 266 238.746094 L 110 238.746094 Z M 110 80.542969 " clip-rule="nonzero"/></clipPath></defs><g clip-path="url(#87a1152e30)"><path fill="#ffde59" d="M 185.816406 238.898438 C 184.335938 238.898438 182.851562 238.332031 181.722656 237.203125 L 128.09375 183.574219 C 104.710938 160.183594 104.238281 122.113281 127.046875 98.703125 C 138.296875 87.160156 153.398438 80.730469 169.570312 80.59375 C 185.78125 80.515625 200.957031 86.640625 212.386719 97.992188 L 216.292969 101.886719 C 220.808594 98.925781 226.089844 97.332031 231.617188 97.332031 C 239.097656 97.332031 246.128906 100.242188 251.417969 105.53125 C 270.757812 124.875 270.757812 156.347656 251.417969 175.6875 L 189.910156 237.203125 C 188.78125 238.332031 187.296875 238.898438 185.816406 238.898438 Z M 170.085938 92.167969 C 169.945312 92.167969 169.808594 92.167969 169.667969 92.167969 C 156.609375 92.277344 144.414062 97.46875 135.339844 106.78125 C 116.925781 125.675781 117.347656 156.453125 136.28125 175.386719 L 185.816406 224.921875 L 243.238281 167.5 C 258.066406 152.671875 258.066406 128.546875 243.238281 113.714844 C 240.132812 110.613281 236.011719 108.902344 231.621094 108.902344 C 229.082031 108.902344 226.625 109.476562 224.410156 110.558594 C 230.976562 119.15625 234.535156 129.605469 234.535156 140.609375 C 234.535156 153.859375 229.375 166.316406 220.007812 175.6875 L 189.910156 205.789062 C 187.652344 208.046875 183.984375 208.046875 181.722656 205.789062 L 143.695312 167.757812 C 129.085938 153.148438 128.621094 129.269531 142.648438 114.527344 C 149.695312 107.128906 159.222656 102.96875 169.476562 102.808594 C 179.726562 102.695312 189.394531 106.519531 196.660156 113.699219 C 198.597656 115.625 201.730469 115.621094 203.648438 113.699219 L 207.695312 109.652344 L 204.222656 106.195312 C 195.105469 97.144531 182.992188 92.167969 170.085938 92.167969 Z M 170.074219 114.378906 C 169.9375 114.378906 169.796875 114.378906 169.65625 114.382812 C 162.535156 114.492188 155.921875 117.378906 151.039062 122.511719 C 141.296875 132.738281 141.679688 149.367188 151.882812 159.574219 L 185.820312 193.511719 L 211.820312 167.507812 C 225.261719 154.070312 226.523438 132.996094 215.605469 118.125 L 211.835938 121.890625 C 205.410156 128.3125 194.953125 128.328125 188.515625 121.921875 C 183.585938 117.050781 177.050781 114.378906 170.074219 114.378906 Z M 170.074219 114.378906 " fill-opacity="1" fill-rule="nonzero"/></g><g fill="#ffffff" fill-opacity="1"><g transform="translate(121.896176, 282.377016)"><g><path d="M 5.5625 0 C 4.78125 0 4.164062 -0.210938 3.71875 -0.640625 C 3.28125 -1.066406 3.0625 -1.671875 3.0625 -2.453125 L 3.0625 -25.9375 C 3.0625 -26.707031 3.28125 -27.304688 3.71875 -27.734375 C 4.164062 -28.171875 4.78125 -28.390625 5.5625 -28.390625 L 13.53125 -28.390625 C 18.175781 -28.390625 21.78125 -27.144531 24.34375 -24.65625 C 26.90625 -22.175781 28.1875 -18.695312 28.1875 -14.21875 C 28.1875 -9.707031 26.90625 -6.207031 24.34375 -3.71875 C 21.78125 -1.238281 18.175781 0 13.53125 0 Z M 13.203125 -4.234375 C 19.722656 -4.234375 22.984375 -7.5625 22.984375 -14.21875 C 22.984375 -20.84375 19.722656 -24.15625 13.203125 -24.15625 L 8.25 -24.15625 L 8.25 -4.234375 Z M 13.203125 -4.234375 "/></g></g></g><g fill="#ffffff" fill-opacity="1"><g transform="translate(151.453073, 282.377016)"><g><path d="M 11.15625 -20.171875 C 13.894531 -20.171875 15.925781 -19.492188 17.25 -18.140625 C 18.582031 -16.785156 19.25 -14.722656 19.25 -11.953125 L 19.25 -2.140625 C 19.25 -1.410156 19.03125 -0.835938 18.59375 -0.421875 C 18.164062 -0.00390625 17.578125 0.203125 16.828125 0.203125 C 16.128906 0.203125 15.554688 -0.0078125 15.109375 -0.4375 C 14.671875 -0.875 14.453125 -1.441406 14.453125 -2.140625 L 14.453125 -3.015625 C 13.992188 -1.972656 13.273438 -1.15625 12.296875 -0.5625 C 11.316406 0.03125 10.1875 0.328125 8.90625 0.328125 C 7.582031 0.328125 6.382812 0.0625 5.3125 -0.46875 C 4.238281 -1.007812 3.394531 -1.75 2.78125 -2.6875 C 2.164062 -3.632812 1.859375 -4.6875 1.859375 -5.84375 C 1.859375 -7.289062 2.222656 -8.429688 2.953125 -9.265625 C 3.691406 -10.097656 4.894531 -10.703125 6.5625 -11.078125 C 8.226562 -11.453125 10.523438 -11.640625 13.453125 -11.640625 L 14.453125 -11.640625 L 14.453125 -12.5625 C 14.453125 -13.875 14.171875 -14.832031 13.609375 -15.4375 C 13.046875 -16.039062 12.132812 -16.34375 10.875 -16.34375 C 10.09375 -16.34375 9.296875 -16.226562 8.484375 -16 C 7.679688 -15.769531 6.734375 -15.441406 5.640625 -15.015625 C 4.941406 -14.671875 4.429688 -14.5 4.109375 -14.5 C 3.617188 -14.5 3.21875 -14.671875 2.90625 -15.015625 C 2.601562 -15.367188 2.453125 -15.828125 2.453125 -16.390625 C 2.453125 -16.847656 2.566406 -17.242188 2.796875 -17.578125 C 3.023438 -17.910156 3.410156 -18.222656 3.953125 -18.515625 C 4.890625 -19.023438 6.007812 -19.425781 7.3125 -19.71875 C 8.613281 -20.019531 9.894531 -20.171875 11.15625 -20.171875 Z M 9.90625 -3.296875 C 11.25 -3.296875 12.34375 -3.742188 13.1875 -4.640625 C 14.03125 -5.546875 14.453125 -6.710938 14.453125 -8.140625 L 14.453125 -8.984375 L 13.734375 -8.984375 C 11.929688 -8.984375 10.53125 -8.898438 9.53125 -8.734375 C 8.539062 -8.578125 7.832031 -8.296875 7.40625 -7.890625 C 6.976562 -7.484375 6.765625 -6.929688 6.765625 -6.234375 C 6.765625 -5.378906 7.066406 -4.675781 7.671875 -4.125 C 8.273438 -3.570312 9.019531 -3.296875 9.90625 -3.296875 Z M 9.90625 -3.296875 "/></g></g></g><g fill="#ffffff" fill-opacity="1"><g transform="translate(172.392558, 282.377016)"><g><path d="M 12.84375 -3.5 C 14.1875 -3.414062 14.859375 -2.8125 14.859375 -1.6875 C 14.859375 -1.039062 14.59375 -0.550781 14.0625 -0.21875 C 13.539062 0.113281 12.800781 0.253906 11.84375 0.203125 L 10.75 0.125 C 6.238281 -0.195312 3.984375 -2.613281 3.984375 -7.125 L 3.984375 -15.90625 L 1.96875 -15.90625 C 1.25 -15.90625 0.691406 -16.066406 0.296875 -16.390625 C -0.0859375 -16.710938 -0.28125 -17.179688 -0.28125 -17.796875 C -0.28125 -18.410156 -0.0859375 -18.878906 0.296875 -19.203125 C 0.691406 -19.523438 1.25 -19.6875 1.96875 -19.6875 L 3.984375 -19.6875 L 3.984375 -23.390625 C 3.984375 -24.117188 4.210938 -24.695312 4.671875 -25.125 C 5.128906 -25.550781 5.742188 -25.765625 6.515625 -25.765625 C 7.273438 -25.765625 7.878906 -25.550781 8.328125 -25.125 C 8.785156 -24.695312 9.015625 -24.117188 9.015625 -23.390625 L 9.015625 -19.6875 L 12.4375 -19.6875 C 13.164062 -19.6875 13.722656 -19.523438 14.109375 -19.203125 C 14.503906 -18.878906 14.703125 -18.410156 14.703125 -17.796875 C 14.703125 -17.179688 14.503906 -16.710938 14.109375 -16.390625 C 13.722656 -16.066406 13.164062 -15.90625 12.4375 -15.90625 L 9.015625 -15.90625 L 9.015625 -6.765625 C 9.015625 -4.773438 9.925781 -3.710938 11.75 -3.578125 Z M 12.84375 -3.5 "/></g></g></g><g fill="#ffffff" fill-opacity="1"><g transform="translate(186.446166, 282.377016)"><g><path d="M 5.109375 0.234375 C 4.390625 0.234375 3.796875 0.03125 3.328125 -0.375 C 2.859375 -0.789062 2.625 -1.390625 2.625 -2.171875 L 2.625 -17.71875 C 2.625 -18.5 2.859375 -19.085938 3.328125 -19.484375 C 3.796875 -19.890625 4.390625 -20.09375 5.109375 -20.09375 C 5.835938 -20.09375 6.441406 -19.890625 6.921875 -19.484375 C 7.410156 -19.085938 7.65625 -18.5 7.65625 -17.71875 L 7.65625 -2.171875 C 7.65625 -1.390625 7.410156 -0.789062 6.921875 -0.375 C 6.441406 0.03125 5.835938 0.234375 5.109375 0.234375 Z M 5.109375 -23.671875 C 4.203125 -23.671875 3.476562 -23.921875 2.9375 -24.421875 C 2.40625 -24.921875 2.140625 -25.570312 2.140625 -26.375 C 2.140625 -27.175781 2.40625 -27.816406 2.9375 -28.296875 C 3.476562 -28.785156 4.203125 -29.03125 5.109375 -29.03125 C 5.992188 -29.03125 6.710938 -28.785156 7.265625 -28.296875 C 7.816406 -27.816406 8.09375 -27.175781 8.09375 -26.375 C 8.09375 -25.570312 7.820312 -24.921875 7.28125 -24.421875 C 6.75 -23.921875 6.023438 -23.671875 5.109375 -23.671875 Z M 5.109375 -23.671875 "/></g></g></g><g fill="#ffffff" fill-opacity="1"><g transform="translate(195.86893, 282.377016)"><g><path d="M 14.046875 -20.171875 C 16.410156 -20.171875 18.171875 -19.5 19.328125 -18.15625 C 20.484375 -16.8125 21.0625 -14.785156 21.0625 -12.078125 L 21.0625 -2.171875 C 21.0625 -1.421875 20.835938 -0.832031 20.390625 -0.40625 C 19.953125 0.0195312 19.34375 0.234375 18.5625 0.234375 C 17.78125 0.234375 17.160156 0.0195312 16.703125 -0.40625 C 16.253906 -0.832031 16.03125 -1.421875 16.03125 -2.171875 L 16.03125 -11.796875 C 16.03125 -13.328125 15.738281 -14.441406 15.15625 -15.140625 C 14.582031 -15.835938 13.675781 -16.1875 12.4375 -16.1875 C 10.988281 -16.1875 9.828125 -15.726562 8.953125 -14.8125 C 8.085938 -13.90625 7.65625 -12.6875 7.65625 -11.15625 L 7.65625 -2.171875 C 7.65625 -1.421875 7.425781 -0.832031 6.96875 -0.40625 C 6.507812 0.0195312 5.890625 0.234375 5.109375 0.234375 C 4.335938 0.234375 3.726562 0.0195312 3.28125 -0.40625 C 2.84375 -0.832031 2.625 -1.421875 2.625 -2.171875 L 2.625 -17.75 C 2.625 -18.445312 2.847656 -19.007812 3.296875 -19.4375 C 3.753906 -19.875 4.375 -20.09375 5.15625 -20.09375 C 5.851562 -20.09375 6.421875 -19.882812 6.859375 -19.46875 C 7.304688 -19.050781 7.53125 -18.507812 7.53125 -17.84375 L 7.53125 -16.75 C 8.195312 -17.851562 9.09375 -18.695312 10.21875 -19.28125 C 11.351562 -19.875 12.628906 -20.171875 14.046875 -20.171875 Z M 14.046875 -20.171875 "/></g></g></g><g fill="#ffffff" fill-opacity="1"><g transform="translate(218.620495, 282.377016)"><g><path d="M 19.28125 -20.09375 C 20.039062 -20.09375 20.644531 -19.875 21.09375 -19.4375 C 21.550781 -19.007812 21.78125 -18.4375 21.78125 -17.71875 L 21.78125 -1.8125 C 21.78125 1.269531 20.921875 3.601562 19.203125 5.1875 C 17.484375 6.769531 14.945312 7.5625 11.59375 7.5625 C 8.664062 7.5625 6.222656 7.015625 4.265625 5.921875 C 3.273438 5.328125 2.78125 4.613281 2.78125 3.78125 C 2.78125 3.195312 2.921875 2.726562 3.203125 2.375 C 3.484375 2.03125 3.851562 1.859375 4.3125 1.859375 C 4.550781 1.859375 4.84375 1.914062 5.1875 2.03125 C 5.539062 2.15625 5.90625 2.296875 6.28125 2.453125 C 7.25 2.859375 8.113281 3.164062 8.875 3.375 C 9.644531 3.59375 10.523438 3.703125 11.515625 3.703125 C 15.035156 3.703125 16.796875 1.984375 16.796875 -1.453125 L 16.796875 -4.03125 C 16.203125 -2.925781 15.335938 -2.070312 14.203125 -1.46875 C 13.078125 -0.863281 11.789062 -0.5625 10.34375 -0.5625 C 8.625 -0.5625 7.097656 -0.96875 5.765625 -1.78125 C 4.441406 -2.601562 3.40625 -3.753906 2.65625 -5.234375 C 1.90625 -6.710938 1.53125 -8.414062 1.53125 -10.34375 C 1.53125 -12.28125 1.898438 -13.992188 2.640625 -15.484375 C 3.378906 -16.972656 4.414062 -18.125 5.75 -18.9375 C 7.09375 -19.757812 8.625 -20.171875 10.34375 -20.171875 C 11.789062 -20.171875 13.078125 -19.867188 14.203125 -19.265625 C 15.335938 -18.660156 16.203125 -17.804688 16.796875 -16.703125 L 16.796875 -17.75 C 16.796875 -18.445312 17.019531 -19.007812 17.46875 -19.4375 C 17.925781 -19.875 18.53125 -20.09375 19.28125 -20.09375 Z M 11.671875 -4.46875 C 13.285156 -4.46875 14.539062 -4.988281 15.4375 -6.03125 C 16.34375 -7.082031 16.796875 -8.519531 16.796875 -10.34375 C 16.796875 -12.195312 16.34375 -13.644531 15.4375 -14.6875 C 14.539062 -15.738281 13.285156 -16.265625 11.671875 -16.265625 C 10.085938 -16.265625 8.835938 -15.738281 7.921875 -14.6875 C 7.015625 -13.644531 6.5625 -12.195312 6.5625 -10.34375 C 6.5625 -8.519531 7.015625 -7.082031 7.921875 -6.03125 C 8.835938 -4.988281 10.085938 -4.46875 11.671875 -4.46875 Z M 11.671875 -4.46875 "/></g></g></g><g fill="#ffffff" fill-opacity="1"><g transform="translate(242.181954, 282.377016)"><g/></g></g></svg>