<svg xmlns="http://www.w3.org/2000/svg" xmlns:xlink="http://www.w3.org/1999/xlink" width="500" zoomAndPan="magnify" viewBox="0 0 375 374.999991" height="500" preserveAspectRatio="xMidYMid meet" version="1.0"><defs><clipPath id="1623fa0e9b"><path d="M 47 44 L 330 44 L 330 331.113281 L 47 331.113281 Z M 47 44 " clip-rule="nonzero"/></clipPath></defs><g clip-path="url(#1623fa0e9b)"><path fill="#ffde59" d="M 184.453125 331.035156 C 181.765625 331.035156 179.082031 330.011719 177.035156 327.964844 L 79.804688 230.734375 C 37.410156 188.332031 36.554688 119.308594 77.90625 76.871094 C 98.304688 55.945312 125.679688 44.285156 155 44.039062 C 184.386719 43.898438 211.898438 55 232.625 75.582031 L 239.703125 82.644531 C 247.890625 77.269531 257.46875 74.386719 267.488281 74.386719 C 281.046875 74.386719 293.796875 79.664062 303.386719 89.253906 C 338.453125 124.320312 338.445312 181.378906 303.386719 216.4375 L 191.871094 327.964844 C 189.824219 330.011719 187.136719 331.035156 184.453125 331.035156 Z M 155.929688 65.023438 C 155.679688 65.023438 155.425781 65.023438 155.175781 65.023438 C 131.5 65.21875 109.394531 74.632812 92.9375 91.515625 C 59.554688 125.773438 60.324219 181.570312 94.648438 215.898438 L 184.453125 305.699219 L 288.554688 201.597656 C 315.4375 174.714844 315.4375 130.976562 288.554688 104.085938 C 282.929688 98.460938 275.449219 95.363281 267.492188 95.363281 C 262.886719 95.363281 258.4375 96.402344 254.417969 98.367188 C 266.324219 113.949219 272.777344 132.898438 272.777344 152.84375 C 272.777344 176.867188 263.421875 199.453125 246.4375 216.441406 L 191.871094 271.007812 C 187.777344 275.109375 181.132812 275.109375 177.035156 271.007812 L 108.085938 202.0625 C 81.601562 175.578125 80.757812 132.289062 106.191406 105.5625 C 118.964844 92.144531 136.238281 84.601562 154.828125 84.3125 C 173.410156 84.109375 190.9375 91.042969 204.109375 104.054688 C 207.625 107.550781 213.300781 107.546875 216.78125 104.0625 L 224.117188 96.722656 L 217.824219 90.453125 C 201.296875 74.046875 179.332031 65.023438 155.929688 65.023438 Z M 155.914062 105.292969 C 155.660156 105.292969 155.410156 105.292969 155.15625 105.296875 C 142.242188 105.5 130.253906 110.730469 121.398438 120.03125 C 103.742188 138.574219 104.433594 168.722656 122.929688 187.226562 L 184.457031 248.753906 L 231.601562 201.609375 C 255.960938 177.25 258.25 139.039062 238.457031 112.078125 L 231.625 118.910156 C 219.976562 130.554688 201.015625 130.578125 189.34375 118.964844 C 180.410156 110.136719 168.558594 105.292969 155.914062 105.292969 Z M 155.914062 105.292969 " fill-opacity="1" fill-rule="nonzero"/></g></svg>